<svg xmlns="http://www.w3.org/2000/svg" viewBox="0 0 132.31 168.95"><defs><style>.cls-1{fill-rule:evenodd;}</style></defs><g id="Layer_2" data-name="Layer 2"><g id="Layer_1-2" data-name="Layer 1"><path class="cls-1" d="M66.16,13.56A17.93,17.93,0,0,0,48.72,8C37.55,10.43,32,13.86,25.33,10.88S16.39,0,16.39,0s-4.61,8.05-4.46,14,5.21,11.92,5.21,11.92S-.29,48.86,0,76.87a140.55,140.55,0,0,0,9.84,49.76l3.27-7.45s6.71,17,11.48,24.44,9.08,10.28,9.08,10.28l-.15-7.75S45.29,159,49.32,162.54a50.24,50.24,0,0,0,10,6.41V124.1c0-9.08-3.72-15.19-8.94-18.77s-11.62-7.15-11.62-7.15V70.92L66.16,81.34,93.57,70.92V98.18s-6.4,3.58-11.62,7.15S73,115,73,124.1V169a50.24,50.24,0,0,0,10-6.41c4-3.58,15.8-16.39,15.8-16.39l-.15,7.75s4.32-2.83,9.08-10.28,11.48-24.44,11.48-24.44l3.27,7.45a140.55,140.55,0,0,0,9.84-49.76c.29-28-17.14-50.95-17.14-50.95s5.07-6,5.21-11.92-4.46-14-4.46-14S113.68,7.9,107,10.88,94.76,10.43,83.59,8a17.91,17.91,0,0,0-17.43,5.52Zm0,50.73-6.57-10a19.66,19.66,0,1,1,6.57-14.66,19.68,19.68,0,1,1,6.56,14.66l-6.56,10Z"/><path class="cls-1" d="M46.48,31.43a8.2,8.2,0,1,1-8.19,8.2,8.2,8.2,0,0,1,8.19-8.2Z"/><path class="cls-1" d="M85.83,31.43A8.2,8.2,0,1,0,94,39.63a8.2,8.2,0,0,0-8.19-8.2Z"/><path d="M43.67,93.07l17.88,6.8v3.06l-17.88-6.8V93.07Zm0-14.64,17.88,6.8v3.06l-17.88-6.8V78.43Zm0,7.38,17.88,6.8v3l-17.88-6.8v-3Z"/></g></g></svg>