<svg xmlns="http://www.w3.org/2000/svg" viewBox="0 0 335.04 137.36"><defs><style>.cls-1{font-size:28px;}.cls-1,.cls-3{font-family:Bastia-Bold, Bastia;font-weight:700;}.cls-2{fill-rule:evenodd;}.cls-3{font-size:42px;}.cls-4{letter-spacing:-0.01em;}</style></defs><g id="Layer_2" data-name="Layer 2"><g id="Layer_1-2" data-name="Layer 1"><text class="cls-1" transform="translate(121.02 51.01)">Arcadia</text><path class="cls-2" d="M52.56,10.77A14.24,14.24,0,0,0,38.71,6.39C29.83,8.29,25.45,11,20.13,8.64S13,0,13,0,9.36,6.39,9.47,11.13s4.15,9.46,4.15,9.46S-.23,38.82,0,61.07a111.82,111.82,0,0,0,7.81,39.54l2.61-5.92s5.32,13.49,9.11,19.41,7.22,8.17,7.22,8.17l-.12-6.16s9.35,10.18,12.55,13a39.83,39.83,0,0,0,7.93,5.09V98.6c0-7.23-3-12.08-7.1-14.92S30.78,78,30.78,78V56.34l21.78,8.29,21.78-8.29V78s-5.09,2.84-9.23,5.68S58,91.37,58,98.6v35.62a39.53,39.53,0,0,0,7.93-5.09c3.2-2.84,12.55-13,12.55-13l-.12,6.16s3.43-2.25,7.22-8.17S94.7,94.69,94.7,94.69l2.6,5.92a111.56,111.56,0,0,0,7.81-39.54c.24-22.25-13.61-40.48-13.61-40.48s4-4.73,4.14-9.46S92.09,0,92.09,0,90.31,6.27,85,8.64s-9.71-.35-18.58-2.25a14.24,14.24,0,0,0-13.85,4.38Zm0,40.3-5.21-7.94a15.62,15.62,0,1,1,5.21-11.65,15.63,15.63,0,1,1,5.21,11.65l-5.21,7.94Z"/><path class="cls-2" d="M36.93,25a6.51,6.51,0,1,1-6.51,6.51A6.51,6.51,0,0,1,36.93,25Z"/><path class="cls-2" d="M68.19,25a6.51,6.51,0,1,0,6.51,6.51A6.51,6.51,0,0,0,68.19,25Z"/><path d="M34.7,73.94l14.2,5.4v2.43l-14.2-5.4V73.94Zm0-11.63,14.2,5.4v2.43l-14.2-5.4V62.31Zm0,5.86,14.2,5.4V76L34.7,70.6V68.17Z"/><text class="cls-3" transform="translate(121.45 86.13)">Li<tspan class="cls-4" x="41.66" y="0">t</tspan><tspan x="57.2" y="0">eracy</tspan></text><text class="cls-3" transform="translate(122.45 121.9)">Learning</text><text class="cls-3" transform="translate(301.23 85.73)">&amp;</text></g></g></svg>