{
    "asset" : {
        "copyright" : "Copyright 2020 Omabuarts Studio. For more info, visit https://omabuarts.com/license",
        "generator" : "Khronos glTF Blender I/O v1.1.46",
        "version" : "2.0"
    },
    "scene" : 0,
    "scenes" : [
        {
            "name" : "Scene",
            "nodes" : [
                12
            ]
        }
    ],
    "nodes" : [
        {
            "name" : "wing.L",
            "rotation" : [
                -0.0425788089632988,
                0.1922190934419632,
                -0.9795339107513428,
                0.041858963668346405
            ],
            "scale" : [
                0.9999999403953552,
                1.0591455698013306,
                0.9999977946281433
            ],
            "translation" : [
                0.5174059271812439,
                0.8713754415512085,
                0.1405935138463974
            ]
        },
        {
            "name" : "wing.R",
            "rotation" : [
                -0.042580097913742065,
                -0.1922185868024826,
                0.9795340299606323,
                0.041858647018671036
            ],
            "scale" : [
                1,
                1.0591458082199097,
                0.9999975562095642
            ],
            "translation" : [
                -0.5174060463905334,
                0.8713754415512085,
                0.1405932754278183
            ]
        },
        {
            "name" : "tail.01",
            "rotation" : [
                -0.8313556909561157,
                -6.624942727739835e-08,
                -9.910532128287741e-08,
                0.5557407736778259
            ],
            "scale" : [
                1,
                1,
                0.9999998807907104
            ],
            "translation" : [
                9.764861630401356e-08,
                0.16845883429050446,
                -0.4095679819583893
            ]
        },
        {
            "name" : "tail.02",
            "rotation" : [
                -0.8701566457748413,
                -5.874341724165788e-08,
                -1.0373068448643608e-07,
                0.4927753508090973
            ],
            "scale" : [
                1,
                1,
                0.9999999403953552
            ],
            "translation" : [
                8.666620487929322e-08,
                0.10544700920581818,
                -0.36350440979003906
            ]
        },
        {
            "children" : [
                0,
                1,
                2,
                3
            ],
            "name" : "body",
            "rotation" : [
                0.7071068286895752,
                8.429370268459024e-08,
                8.429370268459024e-08,
                0.7071068286895752
            ],
            "translation" : [
                -1.2108189073723434e-16,
                -0.02121073007583618,
                0.24963735044002533
            ]
        },
        {
            "name" : "feet.L",
            "rotation" : [
                -5.338508657359853e-08,
                -0.7071068286895752,
                0.7071068286895752,
                5.338508657359853e-08
            ],
            "translation" : [
                0.2445300668478012,
                -2.9802322387695312e-08,
                0.34536051750183105
            ]
        },
        {
            "name" : "feet.R",
            "rotation" : [
                5.338508657359853e-08,
                -0.7071068286895752,
                0.7071068286895752,
                -5.338508657359853e-08
            ],
            "translation" : [
                -0.2445300668478012,
                -2.9802322387695312e-08,
                0.34536051750183105
            ]
        },
        {
            "children" : [
                4,
                5,
                6
            ],
            "name" : "root",
            "rotation" : [
                -0.7071068286895752,
                0,
                0,
                0.7071068286895752
            ],
            "scale" : [
                1,
                0.9999999403953552,
                1
            ]
        },
        {
            "mesh" : 0,
            "name" : "Owl_LOD0",
            "skin" : 0
        },
        {
            "mesh" : 1,
            "name" : "Owl_LOD1",
            "skin" : 0
        },
        {
            "mesh" : 2,
            "name" : "Owl_LOD2",
            "skin" : 0
        },
        {
            "mesh" : 3,
            "name" : "Owl_LOD3",
            "skin" : 0
        },
        {
            "children" : [
                8,
                9,
                10,
                11,
                7
            ],
            "name" : "Rig"
        }
    ],
    "materials" : [
        {
            "doubleSided" : true,
            "emissiveFactor" : [
                0,
                0,
                0
            ],
            "name" : "Mat_Owl",
            "pbrMetallicRoughness" : {
                "baseColorTexture" : {
                    "index" : 0,
                    "texCoord" : 0
                },
                "metallicFactor" : 0,
                "roughnessFactor" : 0.5
            }
        }
    ],
    "meshes" : [
        {
            "name" : "Owl",
            "primitives" : [
                {
                    "attributes" : {
                        "POSITION" : 0,
                        "NORMAL" : 1,
                        "TEXCOORD_0" : 2,
                        "JOINTS_0" : 3,
                        "WEIGHTS_0" : 4
                    },
                    "indices" : 5,
                    "material" : 0
                }
            ]
        },
        {
            "name" : "Owl.005",
            "primitives" : [
                {
                    "attributes" : {
                        "POSITION" : 7,
                        "NORMAL" : 8,
                        "TEXCOORD_0" : 9,
                        "JOINTS_0" : 10,
                        "WEIGHTS_0" : 11
                    },
                    "indices" : 12,
                    "material" : 0
                }
            ]
        },
        {
            "name" : "Owl.007",
            "primitives" : [
                {
                    "attributes" : {
                        "POSITION" : 13,
                        "NORMAL" : 14,
                        "TEXCOORD_0" : 15,
                        "JOINTS_0" : 16,
                        "WEIGHTS_0" : 17
                    },
                    "indices" : 18,
                    "material" : 0
                }
            ]
        },
        {
            "name" : "Owl.001",
            "primitives" : [
                {
                    "attributes" : {
                        "POSITION" : 19,
                        "NORMAL" : 20,
                        "TEXCOORD_0" : 21,
                        "JOINTS_0" : 22,
                        "WEIGHTS_0" : 23
                    },
                    "indices" : 24,
                    "material" : 0
                }
            ]
        }
    ],
    "textures" : [
        {
            "source" : 0
        }
    ],
    "images" : [
        {
            "bufferView" : 6,
            "mimeType" : "image/png",
            "name" : "Tex_Owl"
        }
    ],
    "skins" : [
        {
            "inverseBindMatrices" : 6,
            "joints" : [
                7,
                4,
                0,
                1,
                2,
                3,
                5,
                6
            ],
            "name" : "Rig"
        }
    ],
    "accessors" : [
        {
            "bufferView" : 0,
            "componentType" : 5126,
            "count" : 5802,
            "max" : [
                0.6784411072731018,
                1.8330659866333008,
                0.5247563123703003
            ],
            "min" : [
                -0.6784411072731018,
                0,
                -0.6513434648513794
            ],
            "type" : "VEC3"
        },
        {
            "bufferView" : 1,
            "componentType" : 5126,
            "count" : 5802,
            "type" : "VEC3"
        },
        {
            "bufferView" : 2,
            "componentType" : 5126,
            "count" : 5802,
            "type" : "VEC2"
        },
        {
            "bufferView" : 3,
            "componentType" : 5123,
            "count" : 5802,
            "type" : "VEC4"
        },
        {
            "bufferView" : 4,
            "componentType" : 5126,
            "count" : 5802,
            "type" : "VEC4"
        },
        {
            "bufferView" : 5,
            "componentType" : 5123,
            "count" : 18036,
            "type" : "SCALAR"
        },
        {
            "bufferView" : 7,
            "componentType" : 5126,
            "count" : 8,
            "type" : "MAT4"
        },
        {
            "bufferView" : 8,
            "componentType" : 5126,
            "count" : 2037,
            "max" : [
                0.6784411072731018,
                1.8330659866333008,
                0.5247563123703003
            ],
            "min" : [
                -0.6784411072731018,
                0,
                -0.6525855660438538
            ],
            "type" : "VEC3"
        },
        {
            "bufferView" : 9,
            "componentType" : 5126,
            "count" : 2037,
            "type" : "VEC3"
        },
        {
            "bufferView" : 10,
            "componentType" : 5126,
            "count" : 2037,
            "type" : "VEC2"
        },
        {
            "bufferView" : 11,
            "componentType" : 5123,
            "count" : 2037,
            "type" : "VEC4"
        },
        {
            "bufferView" : 12,
            "componentType" : 5126,
            "count" : 2037,
            "type" : "VEC4"
        },
        {
            "bufferView" : 13,
            "componentType" : 5123,
            "count" : 5508,
            "type" : "SCALAR"
        },
        {
            "bufferView" : 14,
            "componentType" : 5126,
            "count" : 632,
            "max" : [
                0.672660231590271,
                1.8300995826721191,
                0.5306797027587891
            ],
            "min" : [
                -0.672660231590271,
                0,
                -0.655324399471283
            ],
            "type" : "VEC3"
        },
        {
            "bufferView" : 15,
            "componentType" : 5126,
            "count" : 632,
            "type" : "VEC3"
        },
        {
            "bufferView" : 16,
            "componentType" : 5126,
            "count" : 632,
            "type" : "VEC2"
        },
        {
            "bufferView" : 17,
            "componentType" : 5123,
            "count" : 632,
            "type" : "VEC4"
        },
        {
            "bufferView" : 18,
            "componentType" : 5126,
            "count" : 632,
            "type" : "VEC4"
        },
        {
            "bufferView" : 19,
            "componentType" : 5123,
            "count" : 2370,
            "type" : "SCALAR"
        },
        {
            "bufferView" : 20,
            "componentType" : 5126,
            "count" : 487,
            "max" : [
                0.6811894774436951,
                1.8435815572738647,
                0.5319877862930298
            ],
            "min" : [
                -0.6811894774436951,
                0,
                -0.6602542996406555
            ],
            "type" : "VEC3"
        },
        {
            "bufferView" : 21,
            "componentType" : 5126,
            "count" : 487,
            "type" : "VEC3"
        },
        {
            "bufferView" : 22,
            "componentType" : 5126,
            "count" : 487,
            "type" : "VEC2"
        },
        {
            "bufferView" : 23,
            "componentType" : 5123,
            "count" : 487,
            "type" : "VEC4"
        },
        {
            "bufferView" : 24,
            "componentType" : 5126,
            "count" : 487,
            "type" : "VEC4"
        },
        {
            "bufferView" : 25,
            "componentType" : 5123,
            "count" : 1734,
            "type" : "SCALAR"
        }
    ],
    "bufferViews" : [
        {
            "buffer" : 0,
            "byteLength" : 69624,
            "byteOffset" : 0
        },
        {
            "buffer" : 0,
            "byteLength" : 69624,
            "byteOffset" : 69624
        },
        {
            "buffer" : 0,
            "byteLength" : 46416,
            "byteOffset" : 139248
        },
        {
            "buffer" : 0,
            "byteLength" : 46416,
            "byteOffset" : 185664
        },
        {
            "buffer" : 0,
            "byteLength" : 92832,
            "byteOffset" : 232080
        },
        {
            "buffer" : 0,
            "byteLength" : 36072,
            "byteOffset" : 324912
        },
        {
            "buffer" : 0,
            "byteLength" : 17402,
            "byteOffset" : 360984
        },
        {
            "buffer" : 0,
            "byteLength" : 512,
            "byteOffset" : 378388
        },
        {
            "buffer" : 0,
            "byteLength" : 24444,
            "byteOffset" : 378900
        },
        {
            "buffer" : 0,
            "byteLength" : 24444,
            "byteOffset" : 403344
        },
        {
            "buffer" : 0,
            "byteLength" : 16296,
            "byteOffset" : 427788
        },
        {
            "buffer" : 0,
            "byteLength" : 16296,
            "byteOffset" : 444084
        },
        {
            "buffer" : 0,
            "byteLength" : 32592,
            "byteOffset" : 460380
        },
        {
            "buffer" : 0,
            "byteLength" : 11016,
            "byteOffset" : 492972
        },
        {
            "buffer" : 0,
            "byteLength" : 7584,
            "byteOffset" : 503988
        },
        {
            "buffer" : 0,
            "byteLength" : 7584,
            "byteOffset" : 511572
        },
        {
            "buffer" : 0,
            "byteLength" : 5056,
            "byteOffset" : 519156
        },
        {
            "buffer" : 0,
            "byteLength" : 5056,
            "byteOffset" : 524212
        },
        {
            "buffer" : 0,
            "byteLength" : 10112,
            "byteOffset" : 529268
        },
        {
            "buffer" : 0,
            "byteLength" : 4740,
            "byteOffset" : 539380
        },
        {
            "buffer" : 0,
            "byteLength" : 5844,
            "byteOffset" : 544120
        },
        {
            "buffer" : 0,
            "byteLength" : 5844,
            "byteOffset" : 549964
        },
        {
            "buffer" : 0,
            "byteLength" : 3896,
            "byteOffset" : 555808
        },
        {
            "buffer" : 0,
            "byteLength" : 3896,
            "byteOffset" : 559704
        },
        {
            "buffer" : 0,
            "byteLength" : 7792,
            "byteOffset" : 563600
        },
        {
            "buffer" : 0,
            "byteLength" : 3468,
            "byteOffset" : 571392
        }
    ],
    "buffers" : [
        {
            "byteLength" : 574860,
            "uri" : "data:application/octet-stream;base64,"
        }
    ]
}
